PathFileType	4	(X/Y/Z)	D:\TRACE\spotREDO_2-26-24\spot_justBody_Motion_1_2-v60.trc
DataRate	CameraRate	NumFrames	NumMarkers	Units	OrigDataRate	OrigDataStartFrame	OrigNumFrames
100.00	100.00	      13	9	mm	100.00	4376	      7000
Frame#	Time	front left toe			Front right toe			aft left toe			aft right toe			Arm			FL body			FR body			AL Body			AR Body			
		X1	Y1	Z1	X2	Y2	Z2	X3	Y3	Z3	X4	Y4	Z4	X5	Y5	Z5	X6	Y6	Z6	X7	Y7	Z7	X8	Y8	Z8	X9	Y9	Z9	

4376	43.750	-205.22350	9.69351	-86.59848	242.43349	140.40469	-176.39711	-262.74313	32.55517	359.53027	288.26309	36.65603	280.38861	-95.92045	800.29431	-340.50443	-176.98747	542.51764	-295.52084	-23.25412	545.05823	-321.90256	-39.16489	578.56219	576.58820	107.32104	577.61572	554.24683	
4377	43.760	-205.36763	9.78603	-86.47583	240.22119	139.55565	-174.01698	-262.84448	32.40675	359.68079	288.16135	36.36676	280.59796	-95.70232	800.29468	-339.86194	-176.27441	542.47607	-295.15228	-22.47034	545.10876	-321.49283	-38.44832	578.38147	577.15271	107.98464	577.59601	554.80481	
4378	43.770	-205.59732	9.91648	-86.36217	237.46242	137.26357	-172.18700	-263.03305	32.28045	359.74356	287.83350	36.13526	280.59857	-95.25127	800.20325	-339.12048	-175.37109	542.35419	-294.34421	-21.53730	545.24976	-320.79529	-37.85775	578.38989	577.58868	108.78674	577.77448	555.60413	
4379	43.780	-205.80061	10.10305	-86.26295	234.62961	133.14299	-170.75795	-263.29471	32.18689	359.78329	287.29245	35.89149	280.61008	-94.58937	800.31940	-338.52908	-174.46767	542.44775	-293.92297	-20.67478	545.36273	-320.20108	-37.09517	578.35913	578.22516	109.82180	577.86639	556.10352	
4380	43.790	-205.96152	10.18588	-86.17775	232.24461	126.27149	-169.16234	-263.61835	32.14625	359.82281	286.38907	35.71790	280.86234	-94.13427	800.49890	-338.15384	-173.75102	542.53107	-293.48672	-19.86991	545.64117	-319.70242	-36.39527	578.37976	578.72803	110.55460	578.02704	556.66156	
4381	43.800	-206.08438	10.26021	-86.12802	229.91432	117.24986	-167.97386	-263.76224	32.05308	359.88760	288.15128	35.97892	281.05621	-93.02803	800.63715	-337.25516	-173.33772	542.72083	-293.36288	-19.16835	545.85394	-319.02927	-35.77250	578.47876	579.42096	111.03745	578.25043	557.25616	
4382	43.810	-206.21686	10.35334	-86.06585	228.06024	106.60934	-166.83160	-264.03906	32.01921	359.92239	288.08975	35.87949	281.14624	-92.57482	800.90546	-336.72559	-171.85332	542.63544	-292.25467	-18.36948	546.14532	-318.41342	-34.89169	578.54779	580.04742	111.82912	578.33075	557.86554	
4383	43.820	-206.50826	10.58360	-86.01531	225.90070	94.80481	-165.47870	-264.24927	31.99032	359.90326	287.92355	35.74769	281.19153	-91.85525	801.17755	-335.99908	-171.13487	542.95959	-291.70749	-17.67086	546.30890	-317.88229	-34.20504	578.57483	580.47754	112.39181	578.44629	558.52692	
4384	43.830	-206.87854	10.81937	-85.88895	224.34053	83.40512	-163.47926	-264.40909	31.89435	359.99033	287.50455	35.49329	281.11050	-91.05091	801.36163	-335.38855	-170.71645	543.15137	-291.08533	-17.01135	546.55878	-317.21088	-33.27739	578.50562	581.10596	113.29543	578.48004	559.04413	
4385	43.840	-207.18848	10.89219	-85.85204	221.82419	72.20623	-161.78575	-264.68198	31.83148	359.96832	287.40091	35.35564	281.15952	-90.54929	801.38751	-335.01379	-169.90338	543.11078	-290.49985	-16.22187	546.57410	-316.63785	-32.59581	578.44208	581.68848	114.29489	578.39905	559.51984	
4386	43.850	-207.51300	10.93063	-85.75687	220.92502	61.77755	-159.84795	-265.10275	31.76264	359.99203	286.97433	35.11861	281.12408	-89.61060	801.41937	-334.13647	-169.17232	543.13849	-289.94098	-15.69434	546.58142	-316.20612	-31.86404	578.39630	582.28052	115.28354	578.28717	559.99817	
4387	43.860	-207.85048	11.04908	-85.67695	220.43703	51.48109	-158.06152	-265.31302	31.68426	360.01276	286.62341	34.86073	281.22058	-89.41689	801.54749	-333.64130	-168.46159	543.08136	-289.12698	-14.89355	546.52563	-315.56137	-30.83742	578.23578	582.95172	115.96353	578.26093	560.59784	
4388	43.870	-208.12291	11.16273	-85.57619	220.64993	41.04959	-157.07828	-265.48380	31.59326	360.02042	286.46783	34.80783	281.43381	-88.88238	801.41168	-333.00116	-168.44624	543.47113	-289.51208	-14.16296	546.51190	-314.92194	-30.25363	578.24762	583.44073	116.58649	578.31750	561.25867	
